#!OML:ASF I:\Actors\actors\Patient Classification 1\Patient 1\Session 1\Subject1.ASF
:FULLY-SPECIFIED
:DEGREES
229
root 0.465304 17.4987 9.22999 7.75962 6.75381 -9.6023
lowerback 0.979438 4.05894 7.96685
upperback -7.94693 5.99919 0.701865
thorax -8.24496 2.44482 -4.13189
lowerneck -8.31086 -8.75009 -8.04577
upperneck 10.4453 -12.5252 13.2853
head 5.88497 -5.63684 4.4332
rclavicle -1.72446e-014 -1.03368e-014
rhumerus 1.09829 11.8786 -89.8618
rradius 79.1612
rwrist -50.7883
rhand -4.15411 -53.0302
rfingers 7.12502
rthumb 21.606 -81.8449
lclavicle -1.72446e-014 -1.03368e-014
lhumerus -48.6935 24.8701 70.8713
lradius 56.7434
lwrist 3.0645
lhand -21.9771 -10.8109
lfingers 7.12502
lthumb 4.4309 19.1228
rfemur -1.97235 21.8311 28.2588
rtibia 2.8782
rfoot -15.3583 -30.1732
rtoes 11.3048
lfemur 1.55675 -42.605 -7.61764
ltibia -3.98961
lfoot -12.3822 45.4201
ltoes 0.979152
230
root 0.477472 17.4966 9.23422 7.64656 6.81494 -9.49906
lowerback 0.903986 3.94119 8.04548
upperback -7.97664 5.8378 0.684007
thorax -8.24592 2.35818 -4.18009
lowerneck -8.07517 -8.64384 -8.16764
upperneck 10.6597 -12.386 13.1777
head 5.89495 -5.58499 4.4422
rclavicle 3.33461e-014 3.02153e-014
rhumerus 0.958792 12.4293 -89.7409
rradius 79.083
rwrist -51.1514
rhand -4.59966 -53.5381
rfingers 7.12502
rthumb 21.178 -82.4013
lclavicle 3.33461e-014 3.02153e-014
lhumerus -48.5783 25.0668 70.8698
lradius 57.2259
lwrist 3.88603
lhand -22.3735 -10.6533
lfingers 7.12502
lthumb 4.04809 19.288
rfemur -1.9072 21.6929 28.1522
rtibia 3.07047
rfoot -15.4447 -30.1342
rtoes 11.3102
lfemur 1.68401 -42.2997 -7.85785
ltibia -4.0175
lfoot -12.1261 45.0677
ltoes 0.821719
231
root 0.491388 17.4954 9.24048 7.53739 6.83626 -9.39002
lowerback 0.768616 3.82589 8.07712
upperback -7.99908 5.67118 0.680175
thorax -8.20972 2.27495 -4.18243
lowerneck -7.83826 -8.50921 -8.21999
upperneck 10.8097 -12.2061 13.0502
head 5.87455 -5.51384 4.43853
rclavicle 4.84041e-014 2.74323e-014
rhumerus 0.724118 12.9382 -89.7363
rradius 79.2317
rwrist -51.6145
rhand -5.122 -54.3705
rfingers 7.12502
rthumb 20.6762 -83.2891
lclavicle 4.84041e-014 2.74323e-014
lhumerus -48.4005 25.3303 70.787
lradius 57.4707
lwrist 4.25437
lhand -22.4467 -11.612
lfingers 7.12502
lthumb 3.97738 18.3307
rfemur -1.85886 21.5295 28.0192
rtibia 3.27699
rfoot -15.5268 -30.0288
rtoes 11.3414
lfemur 1.9076 -42.19 -8.18827
ltibia -4.0591
lfoot -12.033 44.9282
ltoes 0.679948
232
root 0.506526 17.4954 9.2462 7.40437 6.85512 -9.32903
lowerback 0.65688 3.72305 8.12603
upperback -8.04078 5.52703 0.689693
thorax -8.2063 2.20004 -4.18456
lowerneck -7.75778 -8.37669 -8.05073
upperneck 11.2039 -12.0326 12.6307
head 5.92515 -5.44175 4.29872
rclavicle -5.60573e-014 1.35174e-014
rhumerus 0.304375 13.4779 -89.7486
rradius 79.6941
rwrist -52.2155
rhand -5.69738 -55.1006
rfingers 7.12502
rthumb 20.1232 -84.0784
lclavicle -5.60573e-014 1.35174e-014
lhumerus -48.2781 25.5973 70.6018
lradius 57.6312
lwrist 4.15876
lhand -21.7828 -13.1739
lfingers 7.12502
lthumb 4.6185 16.7558
rfemur -1.76403 21.4593 27.9518
rtibia 3.43932
rfoot -15.6524 -29.9826
rtoes 11.5008
lfemur 2.07617 -41.8751 -8.42677
ltibia -4.0571
lfoot -11.8184 44.5947
ltoes 0.365046
233
root 0.522505 17.495 9.2519 7.30398 6.8998 -9.21535
lowerback 0.52001 3.65575 8.11696
upperback -8.09808 5.42349 0.661903
thorax -8.20067 2.14766 -4.19531
lowerneck -7.62924 -8.27396 -7.80708
upperneck 11.577 -11.8992 12.1549
head 5.95853 -5.39218 4.12679
rclavicle 4.33351e-014 3.57812e-015
rhumerus -0.325463 14.0047 -89.7045
rradius 80.6216
rwrist -52.7266
rhand -6.07424 -55.5601
rfingers 7.12502
rthumb 19.761 -84.5757
lclavicle 4.33351e-014 3.57812e-015
lhumerus -48.1067 25.681 70.5673
lradius 57.9322
lwrist 3.98429
lhand -21.0186 -14.0121
lfingers 7.12502
lthumb 5.35642 15.9002
rfemur -1.6578 21.4752 27.8221
rtibia 3.53745
rfoot -15.7898 -30.0388
rtoes 11.5437
lfemur 2.13832 -41.5078 -8.65975
ltibia -4.00943
lfoot -11.5903 44.1598
ltoes 0.213466
